inDegrees=yes
name=ik_lifting_orientations
DataType=double
version=3
OpenSimVersion=4.5-2024-01-10-34fd6af
endheader
time	pelvis_tilt	pelvis_list	pelvis_rotation	pelvis_tx	pelvis_ty	pelvis_tz	hip_flexion_r	hip_adduction_r	hip_rotation_r	knee_angle_r	knee_angle_r_beta	ankle_angle_r	subtalar_angle_r	mtp_angle_r	hip_flexion_l	hip_adduction_l	hip_rotation_l	knee_angle_l	knee_angle_l_beta	ankle_angle_l	subtalar_angle_l	mtp_angle_l	lumbar_extension	lumbar_bending	lumbar_rotation	arm_flex_r	arm_add_r	arm_rot_r	elbow_flex_r	pro_sup_r	wrist_flex_r	wrist_dev_r	arm_flex_l	arm_add_l	arm_rot_l	elbow_flex_l	pro_sup_l	wrist_flex_l	wrist_dev_l
0.5600000000000001	-30.93357875999987	-7.806479097902248	-193.4160241521335	0	0.9399999998679526	0	15.88737964732727	-6.596358701419719	0	26.59459199235242	0.4641631934910683	-3.67640901922889	0	0	15.88737964732727	-6.596358701419719	0	26.59459199235242	0.4641631934910683	-3.67640901922889	0	0	-88.92209339291159	-18.01581484606846	-5.828862446287127	58.13016156513522	-2.0793105339319	3.391466344694832	6.040751452314277	54.59707287104571	0	0	0	-2.673989233372826	0	35.34889846085948	54.59707287104571	0	0
0.57	-29.3041845392337	-8.53152821661531	-194.2394612243377	0	0.9399999998679526	0	15.91238006723132	-6.60503474048581	0	26.62234068410839	0.464647499525331	-3.680772009728766	0	0	15.91238006723132	-6.60503474048581	0	26.62234068410839	0.464647499525331	-3.680772009728766	0	0	-87.94583818437069	-19.3965176930854	-6.236873600880727	59.19725001522465	-1.788603176132154	3.192996963466144	6.299223964887799	54.55345293895836	0	0	0	-2.678693541404924	0	35.39261054338336	54.55345293895836	0	0
0.58	-27.65319870497232	-9.32700268980666	-195.039230845755	0	0.9399999998679526	0	15.9376648166124	-6.61380021639044	0	26.65038553206033	0.4651369744603135	-3.685177072598774	0	0	15.9376648166124	-6.61380021639044	0	26.65038553206033	0.4651369744603135	-3.685177072598774	0	0	-86.8241940996984	-20.73927253180225	-6.63182896224818	60.11551267078603	-1.483224713812716	2.993357780180743	6.536032187128686	54.50935653439625	0	0	0	-2.683452433208082	0	35.43679994073156	54.50935653439625	0	0
0.59	-25.36408237790459	-10.17688274381906	-195.649604151497	0	0.9399999998679526	0	15.95750550426883	-6.620635329808715	0	26.67244180708506	0.4655219290802205	-3.688604917985218	0	0	15.95750550426883	-6.620635329808715	0	26.67244180708506	0.4655219290802205	-3.688604917985218	0	0	-85.01830877599296	-21.93094734641499	-6.93085041509435	61.10971513188179	-1.291967731015444	2.84696803583962	6.608093105443105	54.47481109246271	0	0	0	-2.687207028710357	0	35.47141767758813	54.47481109246271	0	0
0.6	-23.65885917895143	-10.75919650204578	-196.1580952596851	0	0.9399999998679526	0	15.9870780621602	-6.630870290667503	0	26.70520481547159	0.466093751449424	-3.693743420682391	0	0	15.9870780621602	-6.630870290667503	0	26.70520481547159	0.466093751449424	-3.693743420682391	0	0	-83.52925721136606	-22.85178750701944	-6.975429404262163	61.62279876068766	-1.22082785318448	2.930089584304151	6.986734570086686	54.4232792153152	0	0	0	-2.692777268441501	0	35.52305788367005	54.4232792153152	0	0
0.61	-22.09609303818266	-11.43852590234694	-196.6019398148631	0	0.9399999998679526	0	16.0120713314384	-6.639498178246146	0	26.73289380824731	0.4665770155399213	-3.698070178836661	0	0	16.0120713314384	-6.639498178246146	0	26.73289380824731	0.4665770155399213	-3.698070178836661	0	0	-82.24028042535323	-23.72463230792659	-7.191229058752787	62.09393246329603	-1.054190220515714	2.971970069313314	7.311303831227349	54.37976192480704	0	0	0	-2.697492380633455	0	35.56666633532137	54.37976192480704	0	0
0.62	-22.08514292222771	-11.70554519252317	-196.9963313221992	0	0.9399999998679526	0	16.02436330743891	-6.643768883153476	0	26.74646380170546	0.4668138566052399	-3.70021609713705	0	0	16.02436330743891	-6.643768883153476	0	26.74646380170546	0.4668138566052399	-3.70021609713705	0	0	-82.31953330896233	-24.11783381211388	-7.429617024740745	62.32629686418253	-0.8139439217855272	3.056444107266797	7.639937234342977	54.3583350550344	0	0	0	-2.699799678889198	0	35.58813837018177	54.3583350550344	0	0
0.63	-21.49619408103341	-12.13695319233876	-197.4226919381821	0	0.9399999998679526	0	16.04344701564955	-6.650353852345082	0	26.767578617298	0.4671823796582812	-3.70351650496225	0	0	16.04344701564955	-6.650353852345082	0	26.767578617298	0.4671823796582812	-3.70351650496225	0	0	-81.71777326030968	-24.55261490611218	-7.667422315299631	62.4428421940396	-0.6224479651618192	3.298248909712983	7.938951588854654	54.32511882495874	0	0	0	-2.703398123159078	0	35.6214240995374	54.32511882495874	0	0
0.64	-21.29821477480649	-12.43983036049509	-197.7991560007652	0	0.9399999998679526	0	16.05471039082954	-6.654255685433349	0	26.78001548662404	0.467399443976661	-3.705474730915388	0	0	16.05471039082954	-6.654255685433349	0	26.78001548662404	0.467399443976661	-3.705474730915388	0	0	-81.37715624254059	-24.78915224678346	-7.842653466978999	62.29711591609738	-0.5456649282331874	3.546736506531297	8.419599909188291	54.30550363413892	0	0	0	-2.705517014831291	0	35.64108046665242	54.30550363413892	0	0
0.65	-21.11434331241353	-12.7383827720938	-198.1795311218656	0	0.9399999998679526	0	16.06172453640279	-6.656673421650558	0	26.78777917035097	0.4675349458197794	-3.706686387906585	0	0	16.06172453640279	-6.656673421650558	0	26.78777917035097	0.4675349458197794	-3.706686387906585	0	0	-81.11756180934921	-25.00015291413146	-8.056892080828023	62.23496334541503	-0.5780494027583002	3.737972407664751	8.969774946040909	54.29330358340546	0	0	0	-2.706843067350385	0	35.65330597595527	54.29330358340546	0	0
0.66	-20.9822189027601	-12.98718371703351	-198.4800828602155	0	0.9399999998679526	0	16.07071969104828	-6.659778040087673	0	26.7977238977994	0.467708514056968	-3.708242608529145	0	0	16.07071969104828	-6.659778040087673	0	26.7977238977994	0.467708514056968	-3.708242608529145	0	0	-80.90447706711944	-25.21301962597287	-8.229234696804921	62.0103476402596	-0.5828818831426608	3.857143539834794	9.624384716847281	54.27765404157093	0	0	0	-2.708540813071895	0	35.6689882184213	54.27765404157093	0	0
0.67	-21.63220443998387	-13.24637766645913	-199.1406023235003	0	0.9399999998679526	0	16.07922806132444	-6.662676646603817	0	26.80719762425358	0.4678738617760266	-3.709690506046016	0	0	16.07922806132444	-6.662676646603817	0	26.80719762425358	0.4678738617760266	-3.709690506046016	0	0	-81.57343364123992	-25.64065080762773	-8.629529272173164	61.71914488684884	-0.7329548184644825	3.999117644669936	10.36243588732226	54.2628974571604	0	0	0	-2.710168473445252	0	35.68377516738764	54.2628974571604	0	0
0.68	-22.30315567840023	-13.5477183768982	-199.8137421696064	0	0.9399999998679526	0	16.09325564634851	-6.667496749005438	0	26.82273096269238	0.4681449696756104	-3.712103208200336	0	0	16.09325564634851	-6.667496749005438	0	26.82273096269238	0.4681449696756104	-3.712103208200336	0	0	-82.33171321039438	-25.96681060259929	-9.205402238084664	61.51531564250757	-0.8386124122921899	4.227519929133814	11.00356636467178	54.23852204076843	0	0	0	-2.712827035136665	0	35.70820123233734	54.23852204076843	0	0
0.6899999999999999	-23.12809980473224	-13.67037805220215	-200.2968701165146	0	0.9399999998679526	0	16.10184595039543	-6.670418724799057	0	26.83229571451328	0.4683119060870212	-3.713561870567353	0	0	16.10184595039543	-6.670418724799057	0	26.83229571451328	0.4683119060870212	-3.713561870567353	0	0	-82.85038429617384	-25.90966626645447	-9.54975848503963	60.79683126143119	-1.071943517784932	4.736796882587008	11.81491156492857	54.2236318648957	0	0	0	-2.71447258878997	0	35.72312197277856	54.2236318648957	0	0
